<svg width="500" height="500" viewBox="0 0 500 500" fill="none" xmlns="http://www.w3.org/2000/svg">
<g transform="translate(0.000000,536.000000) scale(0.100000,-0.100000)"
fill="#000000" stroke="none">
<path d="M13330 4984 c-14 -3 -35 -7 -47 -9 l-23 -5 0 -244 0 -243 -42 8 c-72
14 -249 10 -313 -6 -212 -54 -376 -226 -431 -450 -24 -96 -24 -287 -1 -375 31
-113 71 -186 144 -259 78 -77 156 -119 273 -146 138 -32 417 -19 595 28 l50
13 3 834 c1 459 -1 837 -6 842 -9 9 -166 19 -202 12z m-97 -743 l27 -11 0
-365 c0 -339 -1 -366 -17 -373 -10 -3 -72 -7 -138 -7 -116 0 -123 1 -187 33
-73 36 -109 76 -141 156 -17 41 -21 74 -21 171 -1 135 14 199 63 276 63 100
156 142 296 135 50 -2 102 -9 118 -15z"/>
<path d="M5900 4960 c-47 -5 -100 -12 -117 -15 l-33 -6 0 -834 0 -833 28 -6
c171 -34 544 -32 675 3 252 67 397 239 397 471 0 174 -86 328 -222 396 -29 14
-55 28 -57 31 -3 2 18 24 47 49 125 110 161 302 91 489 -41 110 -163 201 -320
240 -76 19 -362 28 -489 15z m400 -251 c93 -33 144 -90 155 -174 13 -99 -32
-197 -109 -234 -51 -25 -185 -42 -258 -34 l-48 6 0 223 c0 203 2 223 18 228
30 9 205 -2 242 -15z m-6 -699 c119 -18 184 -59 229 -145 30 -57 30 -174 1
-230 -25 -47 -89 -100 -142 -115 -62 -18 -228 -33 -287 -25 l-55 6 0 260 0
259 93 0 c50 0 123 -5 161 -10z"/>
<path d="M1070 4152 l0 -529 228 -6 c533 -16 819 -83 1080 -253 80 -52 238
-198 291 -269 l22 -29 26 34 c47 63 198 204 269 251 197 132 411 205 710 244
94 12 470 34 592 35 l22 0 0 526 0 527 -82 -7 c-311 -26 -675 -184 -947 -411
-152 -127 -288 -287 -383 -449 -99 -169 -181 -419 -195 -595 -8 -98 -11 -91
-38 84 -88 570 -559 1094 -1160 1290 -127 42 -246 67 -372 80 l-63 6 0 -529z"/>
<path d="M7315 4504 c-58 -8 -210 -45 -224 -53 -12 -8 -12 -21 -2 -81 15 -91
47 -164 70 -155 96 38 311 57 390 35 75 -20 131 -95 131 -177 0 -23 -2 -23
-125 -23 -76 0 -156 -6 -202 -16 -151 -31 -267 -114 -326 -233 -30 -61 -32
-72 -32 -171 0 -102 1 -109 37 -181 54 -109 125 -161 269 -193 150 -34 296
-30 538 15 l121 23 0 400 c0 230 -5 429 -11 466 -27 173 -139 292 -309 330
-57 12 -272 22 -325 14z m337 -694 l28 0 0 -159 0 -159 -50 -11 c-73 -16 -189
-13 -243 5 -109 37 -148 150 -84 245 43 64 122 91 246 84 41 -3 87 -5 103 -5z"/>
<path d="M8770 4499 c-72 -12 -151 -50 -210 -99 -26 -22 -50 -40 -52 -40 -3 0
-8 23 -11 52 -4 28 -11 56 -17 62 -12 12 -210 13 -228 2 -9 -5 -12 -159 -12
-606 l0 -598 26 -6 c33 -9 215 -9 236 -1 14 6 17 49 20 358 4 332 6 356 27
421 18 55 33 80 75 122 62 62 109 78 205 72 58 -4 66 -7 97 -40 55 -61 57 -76
61 -520 l4 -406 27 -7 c34 -8 190 -8 225 0 l27 7 0 422 c0 468 -5 512 -62 626
-40 78 -105 132 -193 159 -77 24 -175 32 -245 20z"/>
<path d="M9995 4501 c-87 -12 -142 -28 -215 -67 -126 -66 -207 -167 -262 -326
-30 -88 -32 -101 -32 -238 0 -167 14 -233 72 -345 69 -132 192 -225 348 -265
134 -35 346 -24 479 23 l40 14 -3 52 c-2 48 -29 136 -51 170 -7 11 -17 11 -57
-4 -72 -26 -255 -32 -326 -11 -73 21 -147 87 -177 156 -30 69 -42 186 -30 283
18 146 71 237 165 283 54 27 68 29 164 28 61 0 130 -7 165 -17 33 -8 66 -17
73 -19 20 -5 53 86 59 163 l6 66 -41 16 c-78 31 -274 51 -377 38z"/>
<path d="M11032 4499 c-223 -33 -385 -181 -448 -410 -26 -91 -26 -347 0 -438
58 -211 193 -346 396 -397 98 -25 272 -15 365 20 127 48 236 151 291 273 45
101 58 169 58 318 0 163 -14 228 -74 351 -64 132 -187 233 -325 267 -82 21
-188 27 -263 16z m223 -265 c52 -27 100 -91 122 -162 14 -44 18 -92 18 -207 0
-167 -12 -220 -66 -295 -79 -108 -274 -125 -372 -32 -73 69 -102 180 -95 369
8 211 58 302 188 344 46 15 162 5 205 -17z"/>
<path d="M14260 4500 c-138 -19 -218 -57 -312 -147 -122 -119 -171 -256 -171
-483 0 -228 50 -367 173 -483 111 -105 223 -147 390 -147 279 0 472 145 547
411 13 49 18 100 18 219 0 134 -3 165 -23 230 -77 246 -246 384 -497 403 -38
3 -95 2 -125 -3z m175 -251 c53 -14 124 -89 148 -153 29 -83 42 -223 28 -320
-15 -108 -37 -168 -80 -218 -96 -113 -298 -108 -386 8 -54 71 -70 140 -70 304
0 175 22 257 85 320 62 62 175 86 275 59z"/>
<path d="M2480 3053 c-886 -69 -1636 -554 -2089 -1350 -176 -310 -294 -658
-352 -1038 -22 -141 -37 -502 -25 -598 l7 -57 571 0 570 0 -6 38 c-27 168 -34
513 -15 727 39 455 143 840 325 1205 261 521 631 870 1109 1046 l90 33 -70 -1
c-38 -1 -90 -3 -115 -5z"/>
<path d="M2755 3013 c267 -222 422 -553 474 -1013 14 -118 31 -391 31 -487 l0
-73 525 0 525 0 0 39 c0 22 -9 88 -21 147 -74 386 -306 788 -601 1044 -267
231 -569 361 -899 386 l-94 7 60 -50z"/>
<path d="M10123 2873 l-33 -4 0 -227 0 -227 -122 0 c-90 -1 -139 -5 -183 -19
-282 -85 -445 -318 -445 -634 0 -297 151 -505 421 -579 51 -14 101 -18 244
-17 180 0 282 13 413 50 l52 15 0 818 0 818 -46 7 c-49 6 -245 6 -301 -1z
m-33 -1073 c0 -357 10 -325 -105 -324 -105 1 -193 53 -234 137 -46 96 -33 290
26 386 50 80 114 110 236 111 l77 0 0 -310z"/>
<path d="M5790 2851 l-35 -6 -3 -827 -2 -828 27 -7 c37 -10 238 -10 285 0 l38
8 2 461 3 461 284 -462 c230 -373 289 -463 310 -469 34 -9 229 -9 264 1 l27 7
0 825 c0 459 -4 826 -9 829 -19 12 -153 18 -244 11 l-97 -7 -2 -469 -3 -468
-284 468 -284 469 -45 6 c-54 7 -184 6 -232 -3z"/>
<path d="M12971 2763 l-33 -4 4 -632 c5 -616 5 -634 27 -699 52 -160 177 -244
377 -256 93 -5 243 11 278 30 17 9 18 19 13 112 -2 55 -11 119 -20 141 -13 35
-18 40 -43 37 -16 -1 -63 -3 -105 -5 -65 -2 -80 1 -99 18 -46 41 -50 68 -50
340 l0 255 110 0 109 0 7 38 c10 52 11 158 1 215 l-8 47 -110 0 -109 0 0 179
0 178 -46 7 c-49 6 -245 6 -303 -1z"/>
<path d="M7615 2410 c-134 -18 -234 -69 -318 -159 -111 -121 -160 -263 -161
-466 0 -148 21 -244 77 -349 39 -75 135 -172 204 -209 124 -66 309 -85 457
-47 208 53 342 187 397 397 29 109 29 306 0 416 -55 209 -191 352 -383 401
-75 19 -199 27 -273 16z m185 -320 c65 -33 93 -88 110 -211 28 -204 -25 -376
-127 -410 -49 -16 -138 -7 -171 18 -73 54 -97 126 -96 293 0 184 36 280 119
316 45 20 120 17 165 -6z"/>
<path d="M11040 2404 c-144 -38 -281 -144 -347 -269 -72 -136 -102 -359 -69
-515 23 -110 84 -226 157 -299 111 -112 255 -162 466 -162 150 0 239 13 376
57 46 15 47 16 47 57 0 72 -44 219 -75 255 -2 2 -45 -10 -96 -25 -80 -24 -112
-28 -214 -28 -112 0 -124 2 -178 29 -44 21 -66 40 -88 74 -55 88 -78 82 336
82 339 0 366 1 373 18 14 35 6 274 -11 342 -54 204 -198 350 -385 389 -73 15
-226 13 -292 -5z m245 -307 c40 -23 76 -76 89 -129 l6 -28 -195 0 -195 0 6 28
c16 64 54 113 109 138 48 21 134 17 180 -9z"/>
<path d="M12223 2405 c-122 -27 -228 -107 -280 -212 -22 -46 -28 -74 -31 -149
-10 -213 74 -301 361 -383 127 -37 157 -56 157 -102 0 -43 -40 -75 -108 -90
-74 -15 -163 -5 -274 31 l-89 28 -20 -46 c-28 -63 -48 -147 -51 -206 l-3 -50
90 -29 c79 -26 108 -30 240 -34 175 -6 245 7 354 61 87 44 159 114 196 190 23
48 30 76 33 147 5 104 -12 171 -64 241 -46 64 -111 99 -282 154 -146 46 -179
67 -170 110 13 66 156 79 314 27 l92 -30 32 81 c20 50 34 106 37 147 l5 66
-78 21 c-44 12 -103 26 -133 32 -74 14 -253 11 -328 -5z"/>
<path d="M14202 2400 c-192 -51 -337 -204 -393 -417 -28 -105 -30 -299 -5
-393 30 -111 74 -189 151 -266 118 -119 250 -165 471 -165 137 0 211 10 336
48 l87 26 -5 46 c-9 77 -26 143 -50 199 -18 42 -27 52 -41 48 -116 -35 -183
-48 -264 -53 -165 -10 -271 37 -313 139 -9 21 -16 40 -16 43 0 3 166 5 369 5
l368 0 7 38 c11 68 6 222 -10 300 -23 112 -67 195 -144 273 -106 108 -213 149
-380 148 -60 0 -122 -7 -168 -19z m235 -291 c54 -20 93 -70 108 -136 l7 -33
-191 0 c-186 0 -191 1 -191 20 0 26 32 90 57 112 47 43 147 61 210 37z"/>
<path d="M8515 2403 c-16 -2 -40 -6 -52 -8 l-23 -5 0 -604 0 -604 97 -7 c95
-7 245 -1 264 10 5 4 9 118 9 278 0 427 16 508 113 570 42 28 61 31 181 32
l70 0 8 35 c10 45 13 226 4 267 -7 30 -11 32 -63 39 -114 14 -206 -13 -294
-87 -33 -27 -50 -36 -52 -27 -23 87 -33 103 -62 109 -32 7 -151 8 -200 2z"/>
</g>
</svg>
