<?xml version="1.0" encoding="UTF-8"?>
<svg version="1.1" xmlns="http://www.w3.org/2000/svg" width="746" height="268">
<path d="M0 0 C24.53990337 2.33713365 24.53990337 2.33713365 31.5 4.125 C32.35126465 4.33745361 33.2025293 4.54990723 34.07958984 4.76879883 C79.84039236 16.73139263 119.54993687 46.67313402 143.4296875 87.4296875 C153.76241392 105.55606651 159.98967215 124.37661361 163 145 C163.20753906 143.79988281 163.41507812 142.59976563 163.62890625 141.36328125 C171.59196282 97.45067624 195.01990605 58.67934475 232 33 C233.04800781 32.26910156 234.09601563 31.53820312 235.17578125 30.78515625 C262.02222371 12.83494972 293.3449817 0 326 0 C326 35.31 326 70.62 326 107 C311.15 107.66 296.3 108.32 281 109 C242.56110106 112.37747648 207.15689248 120.65311318 178 147.125 C177.4841333 147.59131836 176.9682666 148.05763672 176.43676758 148.53808594 C172.42055837 152.30773744 169.19484908 156.52352927 166 161 C166.7434668 161.08975098 167.48693359 161.17950195 168.25292969 161.27197266 C209.15800303 166.33310885 242.12214658 180.20044505 272 209 C272.70253906 209.65097656 273.40507812 210.30195313 274.12890625 210.97265625 C301.92455371 237.42063595 322.34928713 278.80373553 326 317 C326 319.64 326 322.28 326 325 C290.69 325 255.38 325 219 325 C218.34 310.81 217.68 296.62 217 282 C216.1702383 273.58923371 215.33909808 265.32198193 214 257 C213.86368164 256.13552246 213.72736328 255.27104492 213.58691406 254.38037109 C208.5053797 223.28677917 195.78537495 192.49216616 172 171 C171.36320312 170.40832031 170.72640625 169.81664062 170.0703125 169.20703125 C169.40773438 168.64371094 168.74515625 168.08039063 168.0625 167.5 C167.47597656 166.9946875 166.88945312 166.489375 166.28515625 165.96875 C161.06272749 163.75479729 155.65920475 166.00556075 150.63671875 167.8984375 C148.64753968 168.7091344 146.66466337 169.535424 144.6875 170.375 C143.6358667 170.81908203 142.5842334 171.26316406 141.50073242 171.72070312 C126.38790734 178.26018111 112.62649948 186.43032333 100 197 C99.41347656 197.48645996 98.82695312 197.97291992 98.22265625 198.47412109 C87.36216332 207.51209473 77.75863557 216.86359051 69 228 C68.29101562 228.89203125 67.58203125 229.7840625 66.8515625 230.703125 C28.97758805 279.65216057 8.90012575 345.18581222 8.83203125 406.7734375 C8.82870285 407.85847565 8.82537445 408.94351379 8.82194519 410.06143188 C8.81691724 412.34547507 8.81453557 414.6295255 8.81469727 416.91357422 C8.8125274 420.33183567 8.79437243 423.74976485 8.77539062 427.16796875 C8.77245221 429.41145726 8.77047042 431.65494726 8.76953125 433.8984375 C8.75875298 435.37780289 8.75875298 435.37780289 8.74775696 436.88705444 C8.78112793 447.74108506 10.00388763 458.04276396 11 469 C-27.28 469 -65.56 469 -105 469 C-109.60299231 418.36708455 -100.41680899 368.45657762 -80 322 C-79.68095703 321.26023926 -79.36191406 320.52047852 -79.03320312 319.75830078 C-67.43961493 293.03544765 -50.69373734 268.76228281 -31.09375 247.31640625 C-29.29965017 245.33151595 -27.58598419 243.30579989 -25.875 241.25 C17.43604183 191.8793858 83.03564231 166.86260397 147.1640625 162.33203125 C151.78927042 162.03745577 156.36665264 161.92707807 161 162 C134.48510451 128.46461208 100.31420565 115.61315309 58.72265625 110.578125 C45.83324418 109.18442723 32.89962853 108.77761491 19.94873047 108.44775391 C17.94489607 108.39563796 15.94119433 108.33849841 13.9375 108.28125 C12.77089844 108.25095703 11.60429688 108.22066406 10.40234375 108.18945312 C6.91769958 107.99541726 3.45496556 107.49356651 0 107 C0 71.69 0 36.38 0 0 Z " fill="#A93148" transform="translate(106,67)"/>
<path d="M0 0 C3.7110506 0.00685685 7.42206066 -0.00372321 11.13310289 -0.01193976 C18.38208654 -0.02520932 25.63097647 -0.02242982 32.87996364 -0.01370184 C38.77666804 -0.00689882 44.67334637 -0.00601983 50.57005358 -0.00927329 C51.83376328 -0.00996284 51.83376328 -0.00996284 53.12300247 -0.01066632 C54.83500823 -0.01162559 56.54701399 -0.01259823 58.25901973 -0.01358409 C74.27461615 -0.02211813 90.29016088 -0.01233514 106.30574882 0.00381701 C120.0178285 0.01721838 133.72983196 0.01488972 147.44191027 0.00106072 C163.40414129 -0.01503031 179.36632712 -0.02129434 195.32856512 -0.01210248 C197.03391885 -0.01114694 198.73927259 -0.01020382 200.44462633 -0.00927329 C201.70289615 -0.00857905 201.70289615 -0.00857905 202.98658556 -0.00787079 C208.86931845 -0.00529145 214.75202243 -0.00962899 220.63475084 -0.01671195 C227.81369875 -0.02516643 234.99254839 -0.02276448 242.17148519 -0.00686972 C245.82721451 0.00096029 249.48278058 0.00419588 253.13850832 -0.00581717 C283.62796393 -0.08223136 309.96173723 3.97685085 332.50733995 26.39217401 C349.33546122 44.32320767 355.66600056 66.63636223 355.64778185 90.78755975 C355.65223853 92.64297914 355.65223853 92.64297914 355.65678525 94.53588176 C355.66393636 97.95301103 355.66664229 101.37008999 355.66738272 104.7872231 C355.66924121 108.47931689 355.67679256 112.17139995 355.68351793 115.86348748 C355.69707016 123.929945 355.70312126 131.99639753 355.70752859 140.06286454 C355.71029657 145.10574598 355.71453496 150.14862552 355.71903276 155.19150567 C355.73122192 169.17109073 355.74152157 183.15067427 355.74490786 197.13026452 C355.74512742 198.02411238 355.74534699 198.91796024 355.74557321 199.8388944 C355.74579149 200.73480644 355.74600976 201.63071847 355.74623466 202.55377936 C355.74667811 204.36905154 355.74712467 206.18432371 355.74757433 207.99959588 C355.74779576 208.90002179 355.74801719 209.8004477 355.74824533 210.72815925 C355.75219002 225.30534843 355.76963559 239.88248752 355.79293385 254.45965737 C355.81669537 269.44847437 355.82911191 284.43726628 355.83027577 299.4261024 C355.8311899 307.83258092 355.83687564 316.23899419 355.85509539 324.64545465 C355.8705614 331.80628508 355.87557879 338.96703009 355.86735728 346.12787408 C355.8634735 349.7754562 355.86426785 353.42286663 355.87841463 357.07042718 C355.9924881 388.26527131 352.20685384 413.30128919 329.50733995 436.39217401 C328.8215587 437.09084588 328.13577745 437.78951776 327.42921495 438.50936151 C312.83368609 452.40214269 293.00713263 459.74484409 273.06091356 459.63268304 C271.93841394 459.63439189 270.81591433 459.63610074 269.65939957 459.63786137 C265.91455539 459.64114413 262.16989212 459.63017243 258.42506456 459.61922479 C255.73411199 459.61866041 253.04317035 459.61888978 250.3522191 459.6201098 C244.56722134 459.62115593 238.78226888 459.61490784 232.99728251 459.60363412 C224.6332824 459.5873451 216.26930408 459.58216764 207.90528984 459.57965814 C194.33358125 459.57528636 180.76189678 459.56199133 167.19020128 459.54305291 C154.01051501 459.5246807 140.83083529 459.51053076 127.65113878 459.50203729 C126.8380535 459.50151184 126.02496822 459.50098639 125.18724399 459.50044502 C121.10802829 459.49783485 117.02881254 459.49530746 112.94959676 459.49282122 C79.13549295 459.47210484 45.32142111 459.43634105 11.50733995 459.39217401 C11.50733995 446.52217401 11.50733995 433.65217401 11.50733995 420.39217401 C14.81316088 420.38852838 18.1189818 420.38488275 21.52497911 420.38112664 C51.86839057 420.34581967 82.21170488 420.2907546 112.5550399 420.21425305 C116.5352333 420.20423608 120.51542711 420.19439187 124.4956212 420.18465447 C125.68415491 420.18174241 125.68415491 420.18174241 126.8966994 420.17877153 C139.71171041 420.1477847 152.52670353 420.13078015 165.34174493 420.11897978 C178.49971817 420.10655101 191.65759781 420.07901072 204.81551194 420.03756094 C212.9289565 420.01247485 221.04224573 419.99905314 229.15572962 420.00074443 C235.38634096 420.00077782 241.61672252 419.97974506 247.84726381 419.95100617 C250.3965004 419.94250803 252.9457701 419.94075663 255.49501467 419.94637132 C258.98565109 419.95303361 262.47535451 419.93503552 265.96589708 419.91115594 C266.96593523 419.91891636 267.96597338 419.92667677 268.99631572 419.93467236 C281.70478892 419.78161072 293.00002974 414.94663331 302.53858995 406.61873651 C314.0216797 394.6823669 315.82624005 378.81509904 315.76130724 363.02034783 C315.76442722 361.83433134 315.7675472 360.64831485 315.77076173 359.42635846 C315.77730844 356.17012968 315.7750207 352.91405281 315.76878929 349.65782809 C315.76423327 346.13220639 315.77126406 342.60660402 315.77674913 339.08098626 C315.78561139 332.18841724 315.78373531 325.29589195 315.77792385 318.40332127 C315.77339485 312.79825301 315.7727998 307.19319694 315.77497149 301.58812737 C315.77543118 300.38848107 315.77543118 300.38848107 315.77590017 299.16459948 C315.77653966 297.53955666 315.77718809 295.91451384 315.77784535 294.28947103 C315.78353937 279.07520442 315.77700536 263.86096196 315.76624462 248.64669931 C315.75730996 235.6109991 315.75886226 222.57533451 315.76808214 209.53963494 C315.77880121 194.37733364 315.78299013 179.21505348 315.77685761 164.05274892 C315.77622056 162.43390616 315.77559182 160.8150634 315.77497149 159.19622064 C315.77466293 158.39985706 315.77435438 157.60349348 315.77403648 156.78299767 C315.77231445 151.18898298 315.77521401 145.59498177 315.77993059 140.00096917 C315.78555763 133.17755995 315.78398479 126.35419671 315.7733691 119.53079271 C315.76813684 116.05383948 315.76601359 112.57696271 315.77266741 109.10001016 C315.77815657 105.32126461 315.77124772 101.54273226 315.76130724 97.76400018 C315.76576868 96.67876471 315.77023013 95.59352923 315.77482677 94.47540784 C315.69142252 78.05717408 312.42657161 64.68571629 300.85108995 52.67342401 C289.40702024 42.09305766 275.48571754 40.24015442 260.59166002 40.25173211 C258.7956005 40.24727543 258.7956005 40.24727543 256.96325696 40.24272871 C253.65209174 40.23557184 250.34097843 40.23287122 247.02980924 40.23213124 C243.4536389 40.23027419 239.87747966 40.22272359 236.30131578 40.21599603 C228.4870586 40.2024386 220.67280657 40.19639203 212.85853958 40.19198537 C207.97498863 40.18921855 203.09143965 40.1849804 198.20789003 40.1804812 C184.67441415 40.16829189 171.14093984 40.15799192 157.60745859 40.1546061 C156.74199704 40.15438654 155.87653548 40.15416697 154.98484782 40.15394075 C154.11737078 40.15372247 153.24989375 40.1535042 152.35612953 40.1532793 C150.59842753 40.15283585 148.84072554 40.15238928 147.08302355 40.15193963 C146.21115135 40.1517182 145.33927915 40.15149677 144.44098659 40.15126863 C130.32082978 40.14732254 116.20072465 40.12987276 102.08058779 40.10658011 C87.56755209 40.08283349 73.05454229 40.07040275 58.54148686 40.06923819 C50.39945432 40.06832328 42.25748911 40.06261766 34.11547518 40.04441857 C27.18107434 40.02897284 20.24676165 40.0239234 13.31234686 40.03215668 C9.77855627 40.03604742 6.24494295 40.03521137 2.71117449 40.02109933 C-1.13098494 40.00589695 -4.97289868 40.0142735 -8.81507826 40.02468133 C-9.91637528 40.01662493 -11.0176723 40.00856852 -12.15234196 40.00026798 C-27.03617468 40.094065 -40.48732295 43.81846529 -51.4575038 54.16951776 C-62.4703589 66.19699291 -64.08320418 80.47194137 -63.89573622 96.04329705 C-63.88972481 97.79398341 -63.88561792 99.54467717 -63.88325453 101.29537225 C-63.87492604 105.04236249 -63.85479724 108.78903196 -63.82568884 112.53591752 C-63.78122242 118.46646669 -63.77293954 124.39673512 -63.77105665 130.32743096 C-63.76054121 147.18362686 -63.70684687 164.03944954 -63.60618544 180.89534783 C-63.55079884 190.22251042 -63.52772494 199.54919736 -63.53951198 208.8765226 C-63.54508053 214.76731658 -63.51081918 220.65608462 -63.44670951 226.54651129 C-63.41628106 230.21387382 -63.42361427 233.88045161 -63.44146299 237.54786706 C-63.44221665 239.24218652 -63.42765336 240.93659609 -63.39626837 242.63062501 C-63.17230416 255.38441946 -63.17230416 255.38441946 -66.42603445 260.33209443 C-68.66813318 262.60996659 -70.91921448 264.50441559 -73.49266005 266.39217401 C-74.83431177 267.54926499 -76.16913888 268.71438768 -77.49266005 269.89217401 C-78.14363661 270.45420526 -78.79461317 271.01623651 -79.4653163 271.59529901 C-87.57656751 278.78446193 -94.89028832 286.84095109 -101.12547255 295.71639276 C-101.57664442 296.26940057 -102.0278163 296.82240838 -102.49266005 297.39217401 C-103.15266005 297.39217401 -103.81266005 297.39217401 -104.49266005 297.39217401 C-104.53945292 269.48834052 -104.57468456 241.58451295 -104.59628439 213.68064809 C-104.60658168 200.72339271 -104.62061238 187.76616175 -104.64353895 174.80892205 C-104.66352025 163.51082111 -104.67638772 152.21273787 -104.68083704 140.91461974 C-104.68343639 134.93653893 -104.68951366 128.95850873 -104.70412016 122.98044419 C-104.71777903 117.3441111 -104.72186601 111.70784909 -104.71887541 106.07150102 C-104.71942187 104.01211178 -104.7233495 101.95271995 -104.731071 99.89334512 C-104.8265514 73.0947475 -101.10011493 49.20269732 -82.49266005 28.39217401 C-81.75402723 27.55943963 -81.01539442 26.72670526 -80.2543788 25.86873651 C-58.34325544 2.55903081 -30.3783486 -0.08320642 0 0 Z " fill="#F58E34" transform="translate(143.49266004562378,-0.39217400550842285)"/>
<path d="M0 0 C0.99128906 -0.00515625 1.98257813 -0.0103125 3.00390625 -0.015625 C4.13699219 0.07203125 5.27007813 0.1596875 6.4375 0.25 C7.20771484 0.25338379 7.97792969 0.25676758 8.77148438 0.26025391 C13.20681614 0.61000858 15.62224746 1.33606327 18.63793945 4.71679688 C20.87080515 8.11014264 22.86239418 11.56532651 24.8125 15.125 C25.55140454 16.41464695 26.29363109 17.70239588 27.0390625 18.98828125 C28.52093779 21.55342843 29.98613913 24.12688132 31.43652344 26.70996094 C34.0085906 31.28100303 36.71705255 35.7661587 39.4375 40.25 C40.3808925 41.82380884 41.32358004 43.39804044 42.265625 44.97265625 C46.21703973 51.55791815 50.20215794 58.12274149 54.1875 64.6875 C54.71657959 65.55942993 54.71657959 65.55942993 55.25634766 66.44897461 C60.28554613 74.73574882 65.3569589 82.99412071 70.4375 91.25 C70.7675 61.88 71.0975 32.51 71.4375 2.25 C86.23177083 -0.02604167 86.23177083 -0.02604167 91.0625 0 C92.02414062 -0.00515625 92.98578125 -0.0103125 93.9765625 -0.015625 C98.8413694 0.35774618 103.63708667 1.37719758 108.4375 2.25 C108.4375 57.36 108.4375 112.47 108.4375 169.25 C100.09707036 170.76644175 93.65742389 171.72190484 85.4375 171.25 C84.52355469 171.20488281 83.60960937 171.15976562 82.66796875 171.11328125 C79.12104863 170.70381671 76.37889609 170.31227276 73.93920898 167.55932617 C73.50423096 166.85267822 73.06925293 166.14603027 72.62109375 165.41796875 C72.11255859 164.60642334 71.60402344 163.79487793 71.08007812 162.95874023 C70.53802734 162.06485596 69.99597656 161.17097168 69.4375 160.25 C68.85419922 159.31422119 68.27089844 158.37844238 67.66992188 157.41430664 C65.72350441 154.28507804 63.79762257 151.14389935 61.875 148 C60.80653159 146.25737302 59.7374105 144.5151476 58.66824341 142.77294922 C57.95018016 141.60281722 57.23230452 140.43257008 56.51461792 139.26220703 C53.33740367 134.08204011 50.14030667 128.91436802 46.9375 123.75 C41.23840731 114.55608733 35.56768729 105.34483648 29.90429688 96.12890625 C29.26556641 95.08992188 28.62683594 94.0509375 27.96875 92.98046875 C27.40736328 92.06676514 26.84597656 91.15306152 26.26757812 90.21166992 C24.00453076 86.54931299 21.71922033 82.90075252 19.4375 79.25 C19.1075 108.95 18.7775 138.65 18.4375 169.25 C5.91759368 171.5263466 5.91759368 171.5263466 0.4375 171.5 C-1.17125 171.50773437 -1.17125 171.50773437 -2.8125 171.515625 C-7.77439694 171.1641573 -12.6684072 170.13983505 -17.5625 169.25 C-17.5625 114.14 -17.5625 59.03 -17.5625 2.25 C-5.04285488 -0.02629911 -5.04285488 -0.02629911 0 0 Z " fill="#A93148" transform="translate(591.5625,248.75)"/>
<path d="M0 0 C7.74855051 7.4123878 11.80952522 16.85122483 12.3359375 27.55078125 C12.58176476 40.55396271 11.15903424 51.07771291 2 61 C0.06572265 62.8023948 -1.89284922 64.39455179 -4 66 C-1.29210529 68.08299593 1.47883871 69.94116944 4.375 71.75 C13.85904551 78.11408946 19.82325939 87.84062732 22.375 99 C24.67331136 113.85609509 22.30755295 127.80385937 13.5078125 140.08203125 C3.07349109 153.13741426 -14.15349774 158.93837158 -30.28613281 160.77294922 C-35.8113198 161.23520398 -41.33267228 161.33167742 -46.875 161.375 C-47.96490234 161.38893799 -49.05480469 161.40287598 -50.17773438 161.41723633 C-63.32805348 161.34536136 -75.74088577 159.47323491 -89 158 C-89 102.23 -89 46.46 -89 -11 C-22.73585375 -19.8352195 -22.73585375 -19.8352195 0 0 Z M-59 12 C-59 26.85 -59 41.7 -59 57 C-40.69657188 57.74726788 -40.69657188 57.74726788 -24 51 C-18.20193048 43.99039357 -17.15948287 36.91195373 -18 28 C-19.56989744 21.79466214 -23.15955015 18.64394351 -28.390625 15.2265625 C-38.62803111 10.41436861 -47.30248495 12 -59 12 Z M-59 83 C-59.02526787 90.10244999 -59.04283201 97.20488848 -59.05493164 104.30737305 C-59.05997349 106.72567172 -59.06680678 109.14396733 -59.07543945 111.56225586 C-59.08751157 115.02979283 -59.09322963 118.49728966 -59.09765625 121.96484375 C-59.10281754 123.05337143 -59.10797882 124.14189911 -59.11329651 125.26341248 C-59.11337204 126.26437454 -59.11344757 127.26533661 -59.11352539 128.29663086 C-59.115746 129.18265488 -59.11796661 130.06867889 -59.12025452 130.98155212 C-59.22428041 132.9969869 -59.22428041 132.9969869 -58 134 C-44.00643688 135.23953183 -27.44439891 135.35565569 -15.7734375 126.61328125 C-11.30218551 122.54582074 -9.29156949 118.3028609 -8.76171875 112.30078125 C-8.56283091 104.2929286 -9.34452018 98.14880785 -14.765625 91.99609375 C-22.25606058 84.93326178 -30.67369421 82.84770803 -40.8359375 82.90234375 C-42.43115234 82.90717773 -42.43115234 82.90717773 -44.05859375 82.91210938 C-45.70021484 82.92467773 -45.70021484 82.92467773 -47.375 82.9375 C-48.49261719 82.94201172 -49.61023438 82.94652344 -50.76171875 82.95117188 C-53.50786804 82.96290756 -56.25390586 82.97932637 -59 83 Z " fill="#A93148" transform="translate(663,52)"/>
<path d="M0 0 C0.92619141 -0.00128906 1.85238281 -0.00257813 2.80664062 -0.00390625 C3.74830078 -0.00003906 4.68996094 0.00382813 5.66015625 0.0078125 C6.59794922 0.00394531 7.53574219 0.00007812 8.50195312 -0.00390625 C9.89317383 -0.00197266 9.89317383 -0.00197266 11.3125 0 C12.13613037 0.00112793 12.95976074 0.00225586 13.80834961 0.00341797 C17.79366213 0.18036491 21.75781671 0.69227477 25.72265625 1.1328125 C25.72265625 55.5828125 25.72265625 110.0328125 25.72265625 166.1328125 C17.83909376 169.51148214 17.83909376 169.51148214 13.83203125 170.265625 C12.96384766 170.4315918 12.09566406 170.59755859 11.20117188 170.76855469 C10.30076172 170.93000977 9.40035156 171.09146484 8.47265625 171.2578125 C7.53099609 171.42958008 6.58933594 171.60134766 5.61914062 171.77832031 C-0.67997358 172.90238262 -6.87219205 173.93547792 -13.27734375 174.1328125 C-14.38215088 174.17148437 -14.38215088 174.17148437 -15.50927734 174.2109375 C-36.40986141 174.85639078 -55.42302579 172.7816756 -71.90234375 158.6953125 C-84.51721171 146.31287929 -89.39709952 130.67839454 -89.58984375 113.3828125 C-89.51877843 94.13832439 -83.78760243 77.36550046 -70.71484375 63.0078125 C-60.67046673 53.37380886 -48.01492781 48.56324736 -34.46484375 46.8828125 C-33.74200195 46.79016113 -33.01916016 46.69750977 -32.27441406 46.60205078 C-25.60533869 45.8914116 -20.26950644 46.55013228 -13.27734375 47.1328125 C-13.27734375 31.9528125 -13.27734375 16.7728125 -13.27734375 1.1328125 C-4.2615965 0.00584409 -4.2615965 0.00584409 0 0 Z M-42.27734375 86.1328125 C-49.74606008 96.34270663 -50.07537111 107.93795696 -49.27734375 120.1328125 C-48.23777355 125.99663817 -46.00881829 131.31608971 -41.27734375 135.1328125 C-33.60481685 140.20507572 -26.48691789 142.57527592 -17.27734375 141.1328125 C-15.95734375 140.4728125 -14.63734375 139.8128125 -13.27734375 139.1328125 C-13.27734375 119.3328125 -13.27734375 99.5328125 -13.27734375 79.1328125 C-23.52885798 77.08250965 -34.62383781 78.28406406 -42.27734375 86.1328125 Z " fill="#A93148" transform="translate(1022.27734375,246.8671875)"/>
<path d="M0 0 C1.01126953 -0.00128906 2.02253906 -0.00257812 3.06445312 -0.00390625 C4.11439453 -0.00003906 5.16433594 0.00382812 6.24609375 0.0078125 C7.29990234 0.00394531 8.35371094 0.00007813 9.43945312 -0.00390625 C10.95442383 -0.00197266 10.95442383 -0.00197266 12.5 0 C13.42240479 0.00112793 14.34480957 0.00225586 15.29516602 0.00341797 C17.68359375 0.1328125 17.68359375 0.1328125 20.68359375 1.1328125 C20.68359375 56.9028125 20.68359375 112.6728125 20.68359375 170.1328125 C5.05704905 173.85341838 -7.90213139 176.31817542 -23.50390625 176.3828125 C-25.34178711 176.41375 -25.34178711 176.41375 -27.21679688 176.4453125 C-45.1924459 176.52111914 -60.81702835 172.27294269 -74.31640625 160.1328125 C-88.99180742 143.92922906 -90.212266 125.11042038 -89.51171875 104.29541016 C-88.55248447 88.76300911 -81.24589122 74.07870811 -70.31640625 63.1328125 C-57.83142077 52.59758197 -44.14396375 47.93138534 -27.94140625 48.0078125 C-27.12929687 48.00394531 -26.3171875 48.00007813 -25.48046875 47.99609375 C-24.67609375 47.99738281 -23.87171875 47.99867187 -23.04296875 48 C-22.32705566 48.00112793 -21.61114258 48.00225586 -20.87353516 48.00341797 C-17.3389348 48.18227401 -13.82819937 48.69383836 -10.31640625 49.1328125 C-9.98640625 33.2928125 -9.65640625 17.4528125 -9.31640625 1.1328125 C-5.90338549 0.27955731 -3.45680512 0.00422187 0 0 Z M-48.71875 82.171875 C-58.59857581 94.29821378 -59.51891052 109.22298979 -58.31640625 124.1328125 C-56.88704281 132.21256751 -53.74251664 138.88502481 -47.31640625 144.1328125 C-41.46423796 147.73969589 -35.87375473 150.25511029 -28.9453125 150.265625 C-28.12353516 150.26691406 -27.30175781 150.26820313 -26.45507812 150.26953125 C-25.60494141 150.26566406 -24.75480469 150.26179688 -23.87890625 150.2578125 C-22.60950195 150.26361328 -22.60950195 150.26361328 -21.31445312 150.26953125 C-20.49138672 150.26824219 -19.66832031 150.26695312 -18.8203125 150.265625 C-18.07595947 150.26449707 -17.33160645 150.26336914 -16.56469727 150.26220703 C-13.83602011 150.15759247 -13.83602011 150.15759247 -9.31640625 149.1328125 C-9.31640625 125.0428125 -9.31640625 100.9528125 -9.31640625 76.1328125 C-22.81355866 72.27648324 -37.81145642 72.01236278 -48.71875 82.171875 Z " fill="#A93148" transform="translate(1334.31640625,36.8671875)"/>
<path d="M0 0 C12.47131068 9.72514459 19.21920331 22.72016327 21.39208984 38.28857422 C22.58385927 48.09103377 23.52076689 59.35566808 20.359375 68.83984375 C-3.730625 68.83984375 -27.820625 68.83984375 -52.640625 68.83984375 C-51.320625 71.47984375 -50.000625 74.11984375 -48.640625 76.83984375 C-48.640625 77.49984375 -48.640625 78.15984375 -48.640625 78.83984375 C-47.31033571 79.51256407 -45.97623361 80.17774718 -44.640625 80.83984375 C-43.93808594 81.19304687 -43.23554687 81.54625 -42.51171875 81.91015625 C-27.97436472 88.21045414 -12.30974457 84.87142297 2.359375 80.83984375 C4.02233467 80.4884835 5.68758441 80.14644627 7.359375 79.83984375 C12.87625398 89.49983342 16.01769555 99.64839448 15.359375 110.83984375 C-4.69557637 120.76176706 -31.9490696 122.51064354 -53.234375 116.09375 C-69.1480342 110.23562545 -79.92086361 101.17688228 -87.109375 85.671875 C-95.42230549 65.44535518 -94.44619395 42.97451084 -86.15234375 22.875 C-83.57967857 17.7097265 -80.32465676 13.26352667 -76.640625 8.83984375 C-76.09664062 8.18242187 -75.55265625 7.525 -74.9921875 6.84765625 C-56.87407063 -13.03808177 -21.51721934 -15.0556875 0 0 Z M-46.55859375 26.3515625 C-50.35865671 30.52694032 -50.95428374 32.93764934 -52.640625 38.83984375 C-40.430625 38.83984375 -28.220625 38.83984375 -15.640625 38.83984375 C-18.08780168 30.25722326 -18.08780168 30.25722326 -23.640625 24.83984375 C-31.3265178 21.12474488 -39.49623767 20.78510262 -46.55859375 26.3515625 Z " fill="#A93148" transform="translate(1152.640625,302.16015625)"/>
<path d="M0 0 C12.38543247 11.37751452 18.33187468 26.45275005 19.20507812 43.06787109 C19.45715829 50.68714776 19.43790513 58.20146246 18.08203125 65.7265625 C17.08203125 66.7265625 17.08203125 66.7265625 14.19041443 66.84681702 C12.89579788 66.84459641 11.60118134 66.84237579 10.26733398 66.84008789 C9.19909897 66.84030693 9.19909897 66.84030693 8.10928345 66.8405304 C5.74470013 66.8398312 3.38019464 66.83203856 1.015625 66.82421875 C-0.61962338 66.82235459 -2.25487232 66.82093068 -3.89012146 66.81993103 C-8.2023166 66.81610568 -12.51447827 66.80627525 -16.82666016 66.79522705 C-21.22362821 66.7850133 -25.62060164 66.78043349 -30.01757812 66.77539062 C-38.65105706 66.76465299 -47.28450875 66.74757637 -55.91796875 66.7265625 C-55.31389041 68.00444233 -54.70159575 69.27843993 -54.0859375 70.55078125 C-53.5758313 71.61558716 -53.5758313 71.61558716 -53.05541992 72.7019043 C-49.9576513 78.21591915 -45.09914246 80.27943977 -39.38647461 82.1003418 C-35.42431018 83.10547994 -31.61613935 83.25514329 -27.54296875 83.2265625 C-26.69025391 83.22736816 -25.83753906 83.22817383 -24.95898438 83.22900391 C-17.63750876 83.07165404 -10.96564678 81.55873778 -4.01025391 79.33007812 C1.47871332 77.60889057 1.47871332 77.60889057 4.4453125 78.1875 C6.86570432 80.46347703 7.6448652 82.86865253 8.76953125 85.9765625 C9.18589844 87.09546875 9.60226562 88.214375 10.03125 89.3671875 C11.63991071 94.51011766 12.21008117 99.2264691 12.14453125 104.6015625 C12.13550781 105.56835938 12.12648438 106.53515625 12.1171875 107.53125 C12.10558594 108.25570312 12.09398437 108.98015625 12.08203125 109.7265625 C9.50131699 110.5276847 6.91791276 111.31742807 4.33203125 112.1015625 C3.62175781 112.32328125 2.91148438 112.545 2.1796875 112.7734375 C-8.3897385 115.95361877 -18.77774949 117.09473213 -29.79296875 117.0390625 C-30.93048584 117.03487305 -32.06800293 117.03068359 -33.23999023 117.02636719 C-51.19925947 116.78507921 -66.00638156 111.98517447 -79.48046875 99.8515625 C-83.29279348 95.89902968 -85.83428054 91.71161348 -88.29296875 86.8515625 C-88.61467041 86.21621582 -88.93637207 85.58086914 -89.26782227 84.92626953 C-93.89872564 75.18949833 -95.45665582 65.76967283 -95.35546875 55.0390625 C-95.34717041 53.89856445 -95.33887207 52.75806641 -95.33032227 51.58300781 C-94.97575965 33.77159885 -89.98020825 16.94325626 -77.28515625 3.90625 C-56.66482749 -15.08078539 -22.41590832 -17.46460327 0 0 Z M-51.91796875 26.7265625 C-54.6869848 31.4929502 -54.6869848 31.4929502 -55.91796875 36.7265625 C-43.70796875 36.7265625 -31.49796875 36.7265625 -18.91796875 36.7265625 C-20.04193978 29.98273633 -21.46914322 26.78580215 -26.66796875 22.4140625 C-35.23802881 17.96422362 -45.26461052 19.50291642 -51.91796875 26.7265625 Z " fill="#A93148" transform="translate(1472.91796875,304.2734375)"/>
<path d="M0 0 C0.85207031 0.32871094 1.70414063 0.65742188 2.58203125 0.99609375 C9.49436183 4.06470134 14.68138039 8.69984782 20 14 C20.5775 14.55429687 21.155 15.10859375 21.75 15.6796875 C34.7812894 29.32181859 35.7537374 49.16948599 35.34765625 66.91015625 C34.66908226 82.63410194 29.48433327 97.24781522 18.484375 108.74609375 C5.54879326 120.48167655 -9.97377112 124.54163288 -27.09765625 124.24609375 C-43.45786079 123.21436914 -56.72322681 118.05988244 -68 106 C-82.41186671 89.1110937 -83.28492387 68.14663459 -82 47 C-80.27238075 32.07436638 -73.03893799 17.95364526 -61.72265625 7.99609375 C-45.24005319 -4.37253707 -19.27573368 -7.47426408 0 0 Z M-37.1875 34.1875 C-44.77313662 45.95831545 -44.88639583 62.72368279 -42.3515625 76.125 C-40.52195873 82.88046008 -38.07951873 87.34629909 -32 91 C-27.57604218 93.21197891 -21.81558098 92.40521352 -17 92 C-11.40902948 89.60386978 -8.50404966 85.39551832 -6 80 C-1.68221161 68.12048892 -2.38445226 50.61271811 -7 39 C-8.91631816 35.21493186 -11.18103746 32.60447235 -14.625 30.0625 C-22.83820038 27.47686284 -30.90483244 27.90483244 -37.1875 34.1875 Z " fill="#A93148" transform="translate(795,297)"/>
<path d="M0 0 C2.1330558 -0.00964529 4.26512128 -0.0406901 6.39794922 -0.07226562 C20.35712399 -0.18092974 31.18852473 2.51248901 42.72216797 10.42773438 C53.04955441 20.75512081 55.63083639 34.34861306 55.65908813 48.43692017 C55.65369522 49.51047256 55.65369522 49.51047256 55.64819336 50.60571289 C55.64833939 51.38731277 55.64848541 52.16891266 55.64863586 52.97419739 C55.6479468 55.5225414 55.64020224 58.0708096 55.63232422 60.61914062 C55.63045645 62.39989685 55.62903424 64.1806536 55.6280365 65.96141052 C55.62423954 70.62201383 55.61443369 75.2825854 55.60333252 79.94317627 C55.5930574 84.70950898 55.58852587 89.47584688 55.58349609 94.2421875 C55.5728086 103.57488365 55.5557665 112.90755636 55.53466797 122.24023438 C53.61923635 122.72084065 51.70368604 123.2009739 49.78808594 123.6809082 C48.72137665 123.94833328 47.65466736 124.21575836 46.55563354 124.49128723 C23.68267545 130.16187043 -5.71197174 133.17140675 -27.15283203 121.42773438 C-35.49038103 115.77971731 -40.99118123 107.50594255 -43.14892578 97.63085938 C-44.87932022 84.55676805 -42.97081725 73.78689797 -35.60205078 62.84960938 C-27.20628742 52.5966479 -14.22223799 47.18091368 -1.32470703 45.51367188 C20.92828499 43.93704289 20.92828499 43.93704289 25.53466797 46.24023438 C24.57591189 37.30479238 24.57591189 37.30479238 19.53466797 30.24023438 C13.55697139 27.01905137 8.38159284 26.73578849 1.65966797 26.80273438 C0.65476318 26.80595703 -0.3501416 26.80917969 -1.38549805 26.8125 C-10.46685839 26.97972562 -18.79681376 28.6338611 -27.46533203 31.24023438 C-28.28285506 29.65948873 -29.094152 28.07552214 -29.90283203 26.49023438 C-30.35529297 25.60851562 -30.80775391 24.72679688 -31.27392578 23.81835938 C-33.32020415 19.39034718 -33.58087244 15.86995194 -33.52783203 10.99023438 C-33.51880859 9.91257812 -33.50978516 8.83492187 -33.50048828 7.72460938 C-33.48888672 6.90476562 -33.47728516 6.08492188 -33.46533203 5.24023438 C-31.2582322 4.59019812 -29.04959311 3.94538692 -26.84033203 3.30273438 C-25.61056641 2.94308594 -24.38080078 2.5834375 -23.11376953 2.21289062 C-15.404627 0.15766954 -7.92415941 0.02160643 0 0 Z M-10.59033203 77.30273438 C-13.50682013 81.87189907 -14.02134314 85.91263702 -13.46533203 91.24023438 C-11.45577937 96.74006272 -8.48561412 99.83593227 -3.18017578 102.30273438 C5.6932552 105.36694076 15.56971294 104.49692995 24.53466797 102.24023438 C25.86353832 101.13755732 25.86353832 101.13755732 25.64819336 98.37280273 C25.64295654 97.12120361 25.63771973 95.86960449 25.63232422 94.58007812 C25.63090927 93.91561172 25.62949432 93.25114532 25.6280365 92.56654358 C25.62242315 90.43689538 25.60986851 88.30735098 25.59716797 86.17773438 C25.59215468 84.73698068 25.58759148 83.29622535 25.58349609 81.85546875 C25.57244942 78.31702336 25.55517589 74.77863899 25.53466797 71.24023438 C14.0459055 69.22734565 -2.00217426 67.54678178 -10.59033203 77.30273438 Z " fill="#A93148" transform="translate(741.46533203125,84.759765625)"/>
<path d="M0 0 C12.89098473 10.05224601 21.31038251 23.65763571 23.58984375 40.01953125 C25.87360619 60.27734996 24.77437782 82.42407294 11.58984375 99.01953125 C11.11289063 99.69242187 10.6359375 100.3653125 10.14453125 101.05859375 C2.1621322 111.44774628 -11.70942254 117.26143446 -24.41015625 119.01953125 C-43.3744188 120.16037939 -58.79995022 117.27062445 -73.66015625 104.76953125 C-86.35689836 92.84770768 -90.80704218 75.99289978 -91.59375 59.0703125 C-92.05204736 40.11971682 -88.56138374 20.68946823 -75.22265625 6.33203125 C-55.53027234 -12.01867375 -22.37121581 -15.60400515 0 0 Z M-52.78515625 24.26953125 C-61.63229091 39.24160529 -62.28489505 57.28434987 -58.41015625 74.01953125 C-55.80577966 81.03193655 -52.90347722 87.07261066 -46.41015625 91.01953125 C-38.77924934 94.48683346 -32.09859197 95.21718175 -24.22265625 92.26953125 C-15.97307869 88.61146169 -12.87651277 84.20927468 -9.41015625 76.01953125 C-4.30306791 61.20897507 -5.01410278 43.54979633 -11.2890625 29.20703125 C-13.96065353 23.99417071 -17.43933385 20.14634926 -22.84765625 17.71875 C-33.74620751 14.74490751 -44.54265905 16.46084969 -52.78515625 24.26953125 Z " fill="#A93148" transform="translate(1146.41015625,93.98046875)"/>
<path d="M0 0 C13.33690983 9.80946562 20.0204524 23.6359639 23.25 39.5625 C26.23061656 60.0777347 23.85106851 81.73066763 11.5859375 98.9765625 C2.45060675 110.63198449 -10.34187267 117.10688392 -25 119 C-43.01532197 120.14765943 -58.96387628 117.43298233 -73.375 105.6875 C-85.09641277 94.55832703 -90.83022129 79.03156675 -91.3359375 63.0859375 C-91.36612014 60.51576924 -91.37851533 57.94534308 -91.375 55.375 C-91.37445618 54.70736633 -91.37391235 54.03973267 -91.37335205 53.35186768 C-91.30973754 36.4003817 -88.16459578 19.64575071 -76.02734375 6.87109375 C-55.67802049 -11.9098809 -23.39939613 -15.63395777 0 0 Z M-52.8359375 23.9140625 C-59.63171053 33.03034339 -60.54500685 44.42146113 -60.4375 55.4375 C-60.42992676 56.5298999 -60.42235352 57.6222998 -60.41455078 58.74780273 C-60.19757457 69.37251025 -58.72787279 78.97236877 -51.7109375 87.4140625 C-46.41646776 92.32172166 -39.48185648 94.41602224 -32.34375 94.26953125 C-25.70476886 93.50604842 -19.72908349 91.31438017 -15.0625 86.4375 C-6.17977298 75.04119555 -6.00817944 59.78549502 -7 46 C-8.2623056 36.26895796 -10.76779121 27.11554184 -18.61328125 20.67578125 C-28.58373526 13.62471576 -44.42951539 15.1499203 -52.8359375 23.9140625 Z " fill="#A93148" transform="translate(1468,94)"/>
<path d="M0 0 C9.66862847 6.89471018 13.80506457 16.14280371 16.41796875 27.4921875 C17.24121434 33.07899986 17.5582968 38.47015653 17.53149414 44.11132812 C17.53164017 44.93179626 17.53178619 45.7522644 17.53193665 46.59759521 C17.53124581 49.2812372 17.52349264 51.9648078 17.515625 54.6484375 C17.51375787 56.52030398 17.51233536 58.39217094 17.51133728 60.26403809 C17.50753534 65.16961029 17.49772507 70.07515247 17.4866333 74.98071289 C17.47636905 79.9949503 17.47182895 85.0091926 17.46679688 90.0234375 C17.45610055 99.84636729 17.43905227 109.66927489 17.41796875 119.4921875 C14.1228726 120.18054487 11.09941695 120.62012755 7.73046875 120.625 C6.86679687 120.62628906 6.003125 120.62757813 5.11328125 120.62890625 C3.77910156 120.62310547 3.77910156 120.62310547 2.41796875 120.6171875 C1.52851562 120.62105469 0.6390625 120.62492187 -0.27734375 120.62890625 C-1.14101563 120.62761719 -2.0046875 120.62632812 -2.89453125 120.625 C-3.67441406 120.62387207 -4.45429687 120.62274414 -5.2578125 120.62158203 C-7.77482632 120.48145416 -10.11730064 120.00707854 -12.58203125 119.4921875 C-12.58789749 118.51214752 -12.59376373 117.53210754 -12.59980774 116.52236938 C-12.65719825 107.25415564 -12.73004426 97.98617285 -12.81774616 88.71819496 C-12.86233773 83.95423727 -12.90161817 79.19036288 -12.9284668 74.42626953 C-12.95461215 69.82251205 -12.99509282 65.21907711 -13.04521751 60.61552048 C-13.06181064 58.86544199 -13.07337169 57.1153078 -13.07964516 55.3651619 C-13.04612666 40.32786568 -13.04612666 40.32786568 -18.39453125 26.4921875 C-21.78921037 23.38848088 -24.52948902 22.5173335 -29.1328125 22.4609375 C-37.07344673 22.90025336 -43.23928984 24.73879431 -48.83203125 30.5546875 C-55.07722557 38.45051901 -56.66001702 48.62880795 -56.78735352 58.41552734 C-56.80220291 59.41170578 -56.80220291 59.41170578 -56.81735229 60.42800903 C-56.84870712 62.60301257 -56.87362067 64.77803789 -56.8984375 66.953125 C-56.91902956 68.46913185 -56.9400266 69.98513326 -56.96141052 71.50112915 C-57.01639876 75.47617151 -57.06590977 79.45126367 -57.11425781 83.4263916 C-57.16464344 87.48873282 -57.22024013 91.55100242 -57.27539062 95.61328125 C-57.3826875 103.57285596 -57.48419473 111.53249091 -57.58203125 119.4921875 C-60.78771006 120.15995699 -63.73872115 120.61994806 -67.015625 120.625 C-67.82966797 120.62628906 -68.64371094 120.62757813 -69.48242188 120.62890625 C-70.73829102 120.62310547 -70.73829102 120.62310547 -72.01953125 120.6171875 C-73.26959961 120.62298828 -73.26959961 120.62298828 -74.54492188 120.62890625 C-75.36025391 120.62761719 -76.17558594 120.62632812 -77.015625 120.625 C-77.74837646 120.62387207 -78.48112793 120.62274414 -79.23608398 120.62158203 C-82.03916233 120.46697369 -84.81288917 119.95371118 -87.58203125 119.4921875 C-87.58203125 79.2321875 -87.58203125 38.9721875 -87.58203125 -2.5078125 C-82.959883 -3.66334956 -78.81840723 -3.69174057 -74.08203125 -3.6953125 C-72.80005859 -3.71368164 -72.80005859 -3.71368164 -71.4921875 -3.73242188 C-70.25275391 -3.73532227 -70.25275391 -3.73532227 -68.98828125 -3.73828125 C-68.23869141 -3.74239014 -67.48910156 -3.74649902 -66.71679688 -3.75073242 C-64.25989652 -3.47115604 -62.66837236 -2.82424901 -60.58203125 -1.5078125 C-59.75390625 0.65625 -59.75390625 0.65625 -59.33203125 3.1171875 C-59.1825 3.93445313 -59.03296875 4.75171875 -58.87890625 5.59375 C-58.73195313 6.53347656 -58.73195313 6.53347656 -58.58203125 7.4921875 C-58.14375 7.04488281 -57.70546875 6.59757812 -57.25390625 6.13671875 C-42.59633261 -7.83564312 -17.4747534 -10.2046215 0 0 Z " fill="#A93148" transform="translate(910.58203125,90.5078125)"/>
<path d="M0 0 C1.1100809 10.48409743 -2.29466331 21.21612386 -8 30 C-12.78558087 29.42378938 -17.10760288 28.42157816 -21.6875 26.9375 C-29.12812181 24.76632814 -37.44882422 22.93470622 -44.75 26.5 C-45.4925 26.995 -46.235 27.49 -47 28 C-47 29.65 -47 31.3 -47 33 C-41.16590285 36.1357431 -35.56135122 38.13950024 -29.1875 39.875 C-17.83726982 43.15236208 -7.8167114 46.78421997 -1 57 C4.34841349 66.78089073 5.52924972 77.29847731 3.3515625 88.265625 C-0.21735242 100.16200806 -7.82372021 108.41330646 -18.5625 114.4375 C-39.45395742 124.64030479 -63.31959204 122.83926292 -84.875 115.8125 C-86.58605591 115.21608756 -88.29553043 114.61498261 -90 114 C-89.01286058 102.65526337 -87.14945089 92.29890178 -82 82 C-81.41734375 82.18175781 -80.8346875 82.36351562 -80.234375 82.55078125 C-77.49608482 83.39035135 -74.7489276 84.19596584 -72 85 C-71.07316406 85.28617187 -70.14632813 85.57234375 -69.19140625 85.8671875 C-57.99751007 89.05676443 -46.83603342 89.56254039 -36 85 C-35.05392193 82.25038489 -35.05392193 82.25038489 -35 79 C-39.01579146 73.56439942 -43.69933694 72.62369283 -49.9375 71.125 C-62.5671619 67.7903242 -76.07598215 63.72709104 -83.265625 51.921875 C-88.40318312 42.15327857 -88.6006376 30.14258127 -85.5 19.625 C-81.37678423 9.03681176 -74.0673084 2.0336542 -64 -3 C-44.03209476 -10.8881958 -19.40555894 -8.09935405 0 0 Z " fill="#A93148" transform="translate(1277,300)"/>
<path d="M0 0 C0.83402344 -0.01224609 1.66804688 -0.02449219 2.52734375 -0.03710938 C8.85219616 -0.05177287 13.70097465 0.90269493 20.125 2.1875 C20.125 14.0675 20.125 25.9475 20.125 38.1875 C27.385 38.1875 34.645 38.1875 42.125 38.1875 C42.8486748 41.80587399 43.25289172 44.50861242 43.2578125 48.09375 C43.25974609 49.45693359 43.25974609 49.45693359 43.26171875 50.84765625 C43.25785156 51.78480469 43.25398438 52.72195313 43.25 53.6875 C43.25580078 55.09322266 43.25580078 55.09322266 43.26171875 56.52734375 C43.26042969 57.43613281 43.25914063 58.34492188 43.2578125 59.28125 C43.25668457 60.10302734 43.25555664 60.92480469 43.25439453 61.77148438 C43.125 64.1875 43.125 64.1875 42.125 69.1875 C34.865 69.1875 27.605 69.1875 20.125 69.1875 C20.1691685 76.4836787 20.23902181 83.77899339 20.33251953 91.07470703 C20.36071696 93.55575681 20.38193755 96.03689622 20.39599609 98.51806641 C20.41744162 102.08803147 20.46410342 105.65692028 20.515625 109.2265625 C20.51685364 110.33303131 20.51808228 111.43950012 20.51934814 112.57949829 C20.63501198 118.68351227 20.88600883 122.62206221 25.125 127.1875 C32.33193139 129.58981046 40.71493878 128.15931131 48.125 127.1875 C51.73342817 137.19578191 54.28260154 148.68722187 51.125 159.1875 C32.36116398 163.04591426 12.0236831 165.30186684 -4.875 154.1875 C-13.32962719 147.70561916 -17.24109553 138.48639974 -18.875 128.1875 C-19.14658514 123.99470461 -19.13854826 119.81565202 -19.11791992 115.61523438 C-19.11981827 114.38657654 -19.12171661 113.1579187 -19.12367249 111.89202881 C-19.1267254 108.54953233 -19.12091658 105.207287 -19.11071944 101.86482048 C-19.10188866 98.36060636 -19.10369727 94.85639584 -19.1040802 91.35217285 C-19.10314667 85.47824862 -19.09449958 79.60437638 -19.08081055 73.73046875 C-19.06502973 66.93372216 -19.05981462 60.1370322 -19.0605461 53.34026861 C-19.06115533 46.79579221 -19.05606323 40.25133427 -19.04775429 33.7068634 C-19.04421886 30.9221838 -19.0423907 28.13751072 -19.04186058 25.35282898 C-19.04067407 21.47673524 -19.03098146 17.60068906 -19.02026367 13.72460938 C-19.02071686 12.564151 -19.02117004 11.40369263 -19.02163696 10.20806885 C-19.01737198 9.15951721 -19.01310699 8.11096558 -19.00871277 7.03063965 C-19.00703692 6.11408348 -19.00536108 5.19752731 -19.00363445 4.25319672 C-18.875 2.1875 -18.875 2.1875 -17.875 1.1875 C-11.90064049 0.23241532 -6.04254314 0.00462676 0 0 Z " fill="#A93148" transform="translate(1312.875,257.8125)"/>
<path d="M0 0 C1.08837158 0.00725098 2.17674316 0.01450195 3.2980957 0.02197266 C13.68358644 0.19997868 22.78989822 2.02378014 32.625 5.375 C33.33597717 14.12396911 31.56518303 22.49463394 27.625 30.375 C21.38623235 29.54316431 21.38623235 29.54316431 18.30859375 28.86328125 C6.32737969 26.28411914 -6.33062283 25.40624389 -17.375 31.375 C-18.43267578 31.81199219 -18.43267578 31.81199219 -19.51171875 32.2578125 C-21.8470368 33.65802416 -22.33977199 34.89138123 -23.375 37.375 C-24.3340625 39.0765625 -24.3340625 39.0765625 -25.3125 40.8125 C-31.37765529 53.0791062 -32.4383683 68.31719665 -28.375 81.375 C-25.82587718 88.07640491 -22.74641457 93.76001301 -16.375 97.375 C-2.75059292 103.1419448 8.63585386 101.49267345 22.625 98.375 C24.29072546 98.0369947 25.95700522 97.70162255 27.625 97.375 C32.64891727 105.52448413 33.78752352 113.00026327 34.625 122.375 C12.41002407 130.36153585 -10.8894266 131.64682215 -32.75 121.6875 C-46.23518118 114.36854142 -54.23974394 103.07223145 -59.375 88.83203125 C-65.4091706 67.97171493 -63.0658141 45.49646015 -52.8125 26.4765625 C-45.01974322 13.30824664 -33.28187599 5.72136343 -18.69921875 1.69921875 C-12.42135555 0.21231779 -6.43157719 -0.08501424 0 0 Z " fill="#A93148" transform="translate(1009.375,84.625)"/>
<path d="M0 0 C1.21300781 0.06445312 2.42601562 0.12890625 3.67578125 0.1953125 C6.6875 0.875 6.6875 0.875 8.53125 2.6953125 C10.0935376 5.64043574 10.88148394 8.65093574 11.6875 11.875 C12.14898438 11.41609375 12.61046875 10.9571875 13.0859375 10.484375 C21.50070804 2.5685039 30.74127697 -0.37852712 42.171875 -0.29296875 C45.59336748 -0.06451506 48.4559739 0.75099092 51.6875 1.875 C53.15119523 6.89463511 52.87174522 11.93687699 52.875 17.125 C52.88724609 18.13691406 52.89949219 19.14882813 52.91210938 20.19140625 C52.92363545 26.11581073 52.4049909 31.19981267 50.6875 36.875 C49.4809375 36.84019531 48.274375 36.80539062 47.03125 36.76953125 C45.41668072 36.74137016 43.80209621 36.71407251 42.1875 36.6875 C41.39601563 36.66236328 40.60453125 36.63722656 39.7890625 36.61132812 C33.38197046 36.5325524 28.07000389 37.48930473 22.69921875 41.27734375 C14.83334866 50.39618429 15.22692825 62.84369311 15.17578125 74.265625 C15.15889068 75.7058053 15.14073474 77.14597126 15.12138367 78.58612061 C15.07435159 82.3342032 15.0442424 86.08222764 15.01794434 89.83050537 C14.98789936 93.67227667 14.9414529 97.51384828 14.89648438 101.35546875 C14.81098547 108.86187902 14.74340623 116.3683047 14.6875 123.875 C12.94123832 124.20579345 11.1942726 124.53287159 9.44702148 124.85839844 C8.47425766 125.04094177 7.50149384 125.22348511 6.49925232 125.41156006 C2.84632632 126.01364432 -0.54479337 126.14029497 -4.25 126.125 C-5.49652344 126.13015625 -6.74304688 126.1353125 -8.02734375 126.140625 C-13.49751123 125.80154443 -18.90640363 124.77601606 -24.3125 123.875 C-24.3125 83.615 -24.3125 43.355 -24.3125 1.875 C-6.03893515 -0.40919561 -6.03893515 -0.40919561 0 0 Z " fill="#A93148" transform="translate(867.3125,294.125)"/>
</svg>